<?xml version="1.0" encoding="utf-8"?>
<!-- Generator: Adobe Illustrator 17.0.0, SVG Export Plug-In . SVG Version: 6.00 Build 0)  -->
<!DOCTYPE svg PUBLIC "-//W3C//DTD SVG 1.1//EN" "http://www.w3.org/Graphics/SVG/1.1/DTD/svg11.dtd">
<svg version="1.1" id="Layer_1" xmlns="http://www.w3.org/2000/svg" xmlns:xlink="http://www.w3.org/1999/xlink" x="0px" y="0px"
	 width="260px" height="260px" viewBox="0 0 260 260" enable-background="new 0 0 260 260" xml:space="preserve">
<g opacity="0.1">
	<g>
		<path d="M105.216,106.428c10.148,3.031,17.568,12.451,17.568,23.572s-7.419,20.541-17.568,23.572V106.428 M98.189,98.378v63.243
			c17.464,0,31.622-14.157,31.622-31.622S115.653,98.378,98.189,98.378L98.189,98.378z"/>
	</g>
	<g>
		<path d="M98.189,91.351c21.311,0,38.649,17.338,38.649,38.649s-17.338,38.649-38.649,38.649h-7.027V91.351H98.189 M98.189,84.324
			H84.135v91.351h14.054c25.186,0,45.676-20.49,45.676-45.676S123.375,84.324,98.189,84.324L98.189,84.324z"/>
	</g>
	<g>
		<path d="M98.189,77.297c29.06,0,52.703,23.642,52.703,52.703s-23.642,52.703-52.703,52.703H77.108V77.297H98.189 M98.189,70.27
			H70.081V189.73h28.108c32.935,0,59.73-26.795,59.73-59.73S131.124,70.27,98.189,70.27L98.189,70.27z"/>
	</g>
	<g>
		<path d="M98.189,63.243c36.81,0,66.757,29.947,66.757,66.757s-29.947,66.757-66.757,66.757H63.054V63.243H98.189 M98.189,56.216
			H56.027v147.568h42.162c40.685,0,73.784-33.099,73.784-73.784S138.874,56.216,98.189,56.216L98.189,56.216z"/>
	</g>
	<g>
		<path d="M98.189,49.189C142.748,49.189,179,85.441,179,130s-36.252,80.811-80.811,80.811H49V49.189H98.189 M98.189,42.162H41.973
			v175.676h56.216c48.434,0,87.838-39.404,87.838-87.838C186.027,81.566,146.623,42.162,98.189,42.162L98.189,42.162z"/>
	</g>
	<g>
		<path d="M98.189,35.135c52.309,0,94.865,42.556,94.865,94.865s-42.556,94.865-94.865,94.865H34.946V35.135H98.189 M98.189,28.108
			h-70.27v203.784h70.27c56.183,0,101.892-45.708,101.892-101.892C200.081,73.817,154.372,28.108,98.189,28.108L98.189,28.108z"/>
	</g>
	<g>
		<path d="M98.189,21.081c60.058,0,108.919,48.861,108.919,108.919S158.247,238.919,98.189,238.919H20.892V21.081H98.189
			 M98.189,14.054H13.865v231.892h84.324c63.933,0,115.946-52.013,115.946-115.946S162.122,14.054,98.189,14.054L98.189,14.054z"/>
	</g>
	<g>
		<path d="M98.189,7.027c67.808,0,122.973,55.165,122.973,122.973S165.997,252.973,98.189,252.973H6.838V7.027H98.189 M98.189,0
			H-0.189v260h98.378c71.682,0,130-58.318,130-130S169.871,0,98.189,0L98.189,0z"/>
	</g>
</g>
<g opacity="0.1">
	<path d="M74.073,29.865"/>
</g>
</svg>
