<?xml version="1.0" encoding="utf-8"?>
<!-- Generator: Adobe Illustrator 17.0.0, SVG Export Plug-In . SVG Version: 6.00 Build 0)  -->
<!DOCTYPE svg PUBLIC "-//W3C//DTD SVG 1.1//EN" "http://www.w3.org/Graphics/SVG/1.1/DTD/svg11.dtd">
<svg version="1.1" id="Layer_1" xmlns="http://www.w3.org/2000/svg" xmlns:xlink="http://www.w3.org/1999/xlink" x="0px" y="0px"
	 width="260px" height="260px" viewBox="0 0 260 260" enable-background="new 0 0 260 260" xml:space="preserve">
<g opacity="0.1">
	<path d="M74.073,29.865"/>
</g>
<g opacity="0.1">
	<polygon points="62.878,259.75 62.878,56.018 82.965,109.892 103.051,56.018 103.051,259.75 110.037,259.75 110.037,17.266 
		82.965,89.879 55.892,17.266 55.892,259.75 	"/>
	<polygon points="77.741,-0.25 70.201,-0.25 82.965,31.381 95.728,-0.25 88.188,-0.25 82.965,12.695 	"/>
	<polygon points="62.807,-0.25 55.282,-0.25 82.965,69.315 110.647,-0.25 103.122,-0.25 82.965,50.404 	"/>
	<g>
		<rect x="158.943" y="-0.25" width="6.986" height="260"/>
		<rect y="-0.25" width="6.986" height="260"/>
	</g>
	<g>
		<rect x="144.97" y="-0.25" width="6.986" height="260"/>
		<rect x="13.973" y="-0.25" width="6.986" height="260"/>
	</g>
	<g>
		<rect x="130.997" y="-0.25" width="6.986" height="260"/>
		<rect x="27.946" y="-0.25" width="6.986" height="260"/>
	</g>
	<g>
		<polygon points="76.851,259.75 76.851,133.521 82.965,149.917 89.078,133.521 89.078,259.75 96.064,259.75 96.064,94.77 
			82.965,129.905 69.865,94.77 69.865,259.75 		"/>
		<rect x="117.024" y="-0.25" width="6.986" height="260"/>
		<rect x="41.919" y="-0.25" width="6.986" height="260"/>
	</g>
</g>
</svg>
